<?xml version="1.0" encoding="UTF-8"?><svg id="a" xmlns="http://www.w3.org/2000/svg" width="336.000773" height="80" xmlns:xlink="http://www.w3.org/1999/xlink" viewBox="0 0 336.000773 80"><defs><clipPath id="b"><rect x=".000773" width="79.182905" height="80" style="fill:none; stroke-width:0px;"/></clipPath></defs><g style="clip-path:url(#b);"><path d="m39.591434,80c21.865723,0,39.591453-17.908643,39.591453-40S61.457158,0,39.591434,0,0,17.90864,0,40s17.725708,40,39.591434,40Z" style="fill:#f20; stroke-width:0px;"/><path d="m64.789017,14.540704C53.767864,3.40576,37.320469,1.094066,24.040228,7.599744l2.676542,2.281152c3.947743-1.72496,8.301377-2.680896,12.876091-2.680896,17.930332,0,32.465625,14.68528,32.465625,32.800641,0,4.618878-.94481,9.01456-2.650095,13.000958l2.256555,2.702563c6.439151-13.417282,4.145226-30.028482-6.875928-41.163458Zm-50.495999,4.902815c-4.482686,5.624161-7.165783,12.77408-7.165783,20.557121,0,18.115356,14.535289,32.800641,32.465625,32.800641,7.699588,0,14.773153-2.708002,20.338604-7.232642l2.460052,2.094238c-13.996209,11.805603-34.850929,11.07616-47.997254-2.205756C1.247991,52.175201.52605,31.099359,12.216811,16.95856l2.076207,2.484959Zm3.166161,3.3672l.442474,2.241121,2.183231.411839,1.280862-1.29408,3.167316,3.74688-1.013066,1.02352.442474,2.241119,2.18323.411682.803549-.811682,6.765229,8.0056,10.537977-10.646719L21.918919,8.74648c-2.666565,1.547009-5.17587,3.47048-7.452268,5.770416-.227065.229408-.45413.464688-.675367.699983l5.152575,6.094-1.484679,1.49984Zm30.417795,5.135521l1.984007,1.657599-23.419928,23.671521-1.973713-1.729437-7.830715-6.864484c-.640431.44704-1.251739.958881-1.8223,1.52944-.477408.482242-.914071.99408-1.29833,1.529282l8.552578,9.946716.00586.00592.005858.00592,9.845128,8.640961c.529893-.39408,1.036346-.829437,1.513819-1.311841.570592-.576318,1.071185-1.19408,1.513659-1.841119l-6.788509-7.905597,12.639811-9.358563-.01172.011841,7.923833,6.83504-.803389.811841.442474,2.240961,2.18323.411841,1.013066-1.023523,3.708769,3.199841-1.280862,1.29408.442474,2.241119,2.183233.411841,1.490376-1.50592,6.084099,5.252802c.23296-.223523.460054-.44704.68699-.676483,2.276509-2.299835,4.174525-4.83504,5.705764-7.523199l-19.242077-22.622879,5.333126-7.440961-2.305651-2.758719-.00586-.00592-.005697-.00592-3.40851,3.44512-1.779872-1.50448-1.281022.935361Zm3.639881,3.676801l-1.641937-2.011682,1.071342-1.082397,1.496242,1.8-.925647,1.29408Zm4.751766-8.54752c3.150057,3.176479,5.438279,6.02368,5.112206,6.35312s-3.138337-1.982401-6.288387-5.164961c-3.149899-3.17648-5.438125-6.02368-5.112049-6.353119.326072-.32944,3.138337,1.982399,6.28823,5.16496Z" style="fill:#1a1a1a; fill-rule:evenodd; stroke-width:0px;"/></g><path d="m90.269285,50.359839v-20.719998h10.722949c2.783285,0,4.101675,1.332001,4.101675,5.535199,0,2.782401-.498059,3.848001-1.845748,4.588,1.464876.651199,2.080134,1.8056,2.080134,4.824799,0,4.440002-1.318402,5.772-4.101681,5.772h-10.957328Zm4.218867-12.431998h5.800937c.439465,0,.585952-.148001.585952-2.220001s-.146486-2.220001-.585952-2.220001h-5.800937v4.440002Zm0,8.584h6.035316c.439465,0,.585958-.148001.585958-2.456799s-.146492-2.456802-.585958-2.456802h-6.035316v4.913602Z" style="fill:#fff; stroke-width:0px;"/><path d="m110.560219,50.359839v-20.719998h4.218867v16.812799h8.847895v3.907199h-13.066762Z" style="fill:#fff; stroke-width:0px;"/><path d="m140.434669,50.359839l-1.259803-4.499197h-7.031446l-1.259803,4.499197h-4.453241l6.240402-20.719998h6.152515l6.240402,20.719998h-4.629027Zm-7.207232-8.4064h4.863413l-2.431706-8.702399-2.431706,8.702399Z" style="fill:#fff; stroke-width:0px;"/><path d="m152.514013,50.359839c-2.783279,0-4.101669-1.331998-4.101669-4.144v-12.431998c0-2.812,1.31839-4.144,4.101669-4.144h6.796432c2.784064,0,4.101669,1.332001,4.101669,4.144v3.374399h-4.218855v-3.019199c0-.444-.145701-.592001-.585958-.592001h-5.390143c-.439459,0-.585946.148001-.585946.592001v11.7216c0,.443997.146486.591998.585946.591998h5.390143c.440257,0,.585958-.148001.585958-.591998v-3.019202h4.218855v3.374399c0,2.812003-1.317605,4.144-4.101669,4.144h-6.796432Z" style="fill:#fff; stroke-width:0px;"/><path d="m168.628693,50.359839v-20.719998h4.218855v8.228799h1.582075l5.742343-8.228799h4.804825l-7.001349,10.123199,7.294322,10.596799h-4.950514l-5.91813-8.702399h-1.553573v8.702399h-4.218855Z" style="fill:#fff; stroke-width:0px;"/><path d="m201.594111,50.359839l-1.260588-4.499197h-7.031446l-1.259005,4.499197h-4.453241l6.239605-20.719998h6.152515l6.241187,20.719998h-4.629027Zm-7.20722-8.4064h4.863413l-2.432504-8.702399-2.430909,8.702399Z" style="fill:#fff; stroke-width:0px;"/><path d="m210.47052,50.359839v-20.719998h4.218867v20.719998h-4.218867Z" style="fill:#fff; stroke-width:0px;"/><path d="m232.846022,42.811841l3.487209,7.547998h-4.541925l-3.398524-7.3112h-3.398524v7.3112h-4.218867v-20.719998h10.811627c2.782493,0,4.101669,1.332001,4.101669,4.144v5.002399c0,2.3384-.909004,3.670401-2.842663,4.025601Zm-7.851765-3.552002h5.889615c.438662,0,.585946-.147998.585946-.591998v-4.588c0-.444-.147284-.592001-.585946-.592001h-5.889615v5.772Z" style="fill:#fff; stroke-width:0px;"/><path d="m241.294848,50.359839v-20.719998h10.840142c2.784064,0,4.101669,1.332001,4.101669,4.144v5.5056c0,2.812-1.317605,4.144-4.101669,4.144h-6.621274v6.926398h-4.218867Zm4.218867-10.8336h5.91813c.440257,0,.585946-.147998.585946-.591998v-4.7952c0-.444-.145689-.592001-.585946-.592001h-5.91813v5.979199Z" style="fill:#fff; stroke-width:0px;"/><path d="m261.100071,50.359839v-20.719998h4.218867v16.812799h8.847883v3.907199h-13.06675Z" style="fill:#fff; stroke-width:0px;"/><path d="m290.974195,50.359839l-1.259005-4.499197h-7.031446l-1.2606,4.499197h-4.453241l6.241187-20.719998h6.152527l6.239617,20.719998h-4.629039Zm-7.20722-8.4064h4.863413l-2.430921-8.702399-2.432492,8.702399Z" style="fill:#fff; stroke-width:0px;"/><path d="m299.850592,50.359839v-20.719998h4.394666l7.764675,13.3496v-13.3496h4.101669v20.719998h-4.101669l-8.057673-13.823199v13.823199h-4.101669Z" style="fill:#fff; stroke-width:0px;"/><path d="m322.20234,50.359839v-20.719998h13.798433v3.907199h-9.579566v4.292001h7.763105v3.847998h-7.763105v4.765601h9.579566v3.907199h-13.798433Z" style="fill:#fff; stroke-width:0px;"/></svg>