<?xml version="1.0" encoding="UTF-8"?><svg id="a" xmlns="http://www.w3.org/2000/svg" width="336" height="80" xmlns:xlink="http://www.w3.org/1999/xlink" viewBox="0 0 336 80"><defs><clipPath id="b"><rect width="79.182905" height="80" style="fill:none; stroke-width:0px;"/></clipPath></defs><g style="clip-path:url(#b);"><path d="m39.590661,80c21.865723,0,39.591453-17.908643,39.591453-40S61.456384,0,39.590661,0-.000773,17.90864-.000773,40s17.725708,40,39.591434,40Z" style="fill:#f20; stroke-width:0px;"/><path d="m64.788244,14.540704C53.767091,3.40576,37.319695,1.094066,24.039455,7.599744l2.676542,2.281152c3.947743-1.72496,8.301377-2.680896,12.876091-2.680896,17.930332,0,32.465625,14.68528,32.465625,32.800641,0,4.618878-.94481,9.01456-2.650095,13.000958l2.256555,2.702563c6.439151-13.417282,4.145226-30.028482-6.875928-41.163458Zm-50.495999,4.902815c-4.482686,5.624161-7.165783,12.77408-7.165783,20.557121,0,18.115356,14.535289,32.800641,32.465625,32.800641,7.699588,0,14.773153-2.708002,20.338604-7.232642l2.460052,2.094238c-13.996209,11.805603-34.850929,11.07616-47.997254-2.205756C1.247218,52.175201.525277,31.099359,12.216038,16.95856l2.076207,2.484959Zm3.166161,3.3672l.442474,2.241121,2.183231.411839,1.280862-1.29408,3.167316,3.74688-1.013066,1.02352.442474,2.241119,2.18323.411682.803549-.811682,6.765229,8.0056,10.537977-10.646719L21.918146,8.74648c-2.666565,1.547009-5.17587,3.47048-7.452268,5.770416-.227065.229408-.45413.464688-.675367.699983l5.152575,6.094-1.484679,1.49984Zm30.417795,5.135521l1.984007,1.657599-23.419928,23.671521-1.973713-1.729437-7.830715-6.864484c-.640431.44704-1.251739.958881-1.8223,1.52944-.477408.482242-.914071.99408-1.29833,1.529282l8.552578,9.946716.00586.00592.005858.00592,9.845128,8.640961c.529893-.39408,1.036346-.829437,1.513819-1.311841.570592-.576318,1.071185-1.19408,1.513659-1.841119l-6.788509-7.905597,12.639811-9.358563-.01172.011841,7.923833,6.83504-.803389.811841.442474,2.240961,2.18323.411841,1.013066-1.023523,3.708769,3.199841-1.280862,1.29408.442474,2.241119,2.183233.411841,1.490376-1.50592,6.084099,5.252802c.23296-.223523.460054-.44704.68699-.676483,2.276509-2.299835,4.174525-4.83504,5.705764-7.523199l-19.242077-22.622879,5.333126-7.440961-2.305651-2.758719-.00586-.00592-.005697-.00592-3.40851,3.44512-1.779872-1.50448-1.281022.935361Zm3.639881,3.676801l-1.641937-2.011682,1.071342-1.082397,1.496242,1.8-.925647,1.29408Zm4.751766-8.54752c3.150057,3.176479,5.438279,6.02368,5.112206,6.35312s-3.138337-1.982401-6.288387-5.164961c-3.149899-3.17648-5.438125-6.02368-5.112049-6.353119.326072-.32944,3.138337,1.982399,6.28823,5.16496Z" style="fill:#1a1a1a; fill-rule:evenodd; stroke-width:0px;"/></g><path d="m90.268512,35.539919V14.81992h10.722949c2.783285,0,4.101675,1.332001,4.101675,5.535199,0,2.782401-.498059,3.848001-1.845748,4.588,1.464876.651199,2.080134,1.8056,2.080134,4.824799,0,4.440002-1.318402,5.772-4.101681,5.772h-10.957328Zm4.218867-12.431998h5.800937c.439465,0,.585952-.148001.585952-2.220001s-.146486-2.220001-.585952-2.220001h-5.800937v4.440002Zm0,8.584h6.035316c.439465,0,.585958-.148001.585958-2.456799s-.146492-2.456802-.585958-2.456802h-6.035316v4.913602Z" style="fill:#fff; stroke-width:0px;"/><path d="m110.559445,35.539919V14.81992h4.218867v16.812799h8.847895v3.907199h-13.066762Z" style="fill:#fff; stroke-width:0px;"/><path d="m140.433895,35.539919l-1.259803-4.499197h-7.031446l-1.259803,4.499197h-4.453241l6.240402-20.719998h6.152515l6.240402,20.719998h-4.629027Zm-7.207232-8.4064h4.863413l-2.431706-8.702399-2.431706,8.702399Z" style="fill:#fff; stroke-width:0px;"/><path d="m152.513239,35.539919c-2.783279,0-4.101669-1.331998-4.101669-4.144v-12.431998c0-2.812,1.31839-4.144,4.101669-4.144h6.796432c2.784064,0,4.101669,1.332001,4.101669,4.144v3.374399h-4.218855v-3.019199c0-.444-.145701-.592001-.585958-.592001h-5.390143c-.439459,0-.585946.148001-.585946.592001v11.7216c0,.443997.146486.591998.585946.591998h5.390143c.440257,0,.585958-.148001.585958-.591998v-3.019202h4.218855v3.374399c0,2.812003-1.317605,4.144-4.101669,4.144h-6.796432Z" style="fill:#fff; stroke-width:0px;"/><path d="m168.62792,35.539919V14.81992h4.218855v8.228799h1.582075l5.742343-8.228799h4.804825l-7.001349,10.123199,7.294322,10.596799h-4.950514l-5.91813-8.702399h-1.553573v8.702399h-4.218855Z" style="fill:#fff; stroke-width:0px;"/><path d="m201.593338,35.539919l-1.260588-4.499197h-7.031446l-1.259005,4.499197h-4.453241l6.239605-20.719998h6.152515l6.241187,20.719998h-4.629027Zm-7.20722-8.4064h4.863413l-2.432504-8.702399-2.430909,8.702399Z" style="fill:#fff; stroke-width:0px;"/><path d="m210.469747,35.539919V14.81992h4.218867v20.719998h-4.218867Z" style="fill:#fff; stroke-width:0px;"/><path d="m232.845249,27.99192l3.487209,7.547998h-4.541925l-3.398524-7.3112h-3.398524v7.3112h-4.218867V14.81992h10.811627c2.782493,0,4.101669,1.332001,4.101669,4.144v5.002399c0,2.3384-.909004,3.670401-2.842663,4.025601Zm-7.851765-3.552002h5.889615c.438662,0,.585946-.147998.585946-.591998v-4.588c0-.444-.147284-.592001-.585946-.592001h-5.889615v5.772Z" style="fill:#fff; stroke-width:0px;"/><path d="m241.294075,35.539919V14.81992h10.840142c2.784064,0,4.101669,1.332001,4.101669,4.144v5.5056c0,2.812-1.317605,4.144-4.101669,4.144h-6.621274v6.926398h-4.218867Zm4.218867-10.8336h5.91813c.440257,0,.585946-.147998.585946-.591998v-4.7952c0-.444-.145689-.592001-.585946-.592001h-5.91813v5.979199Z" style="fill:#fff; stroke-width:0px;"/><path d="m261.099298,35.539919V14.81992h4.218867v16.812799h8.847883v3.907199h-13.06675Z" style="fill:#fff; stroke-width:0px;"/><path d="m290.973422,35.539919l-1.259005-4.499197h-7.031446l-1.2606,4.499197h-4.453241l6.241187-20.719998h6.152527l6.239617,20.719998h-4.629039Zm-7.20722-8.4064h4.863413l-2.430921-8.702399-2.432492,8.702399Z" style="fill:#fff; stroke-width:0px;"/><path d="m299.849819,35.539919V14.81992h4.394666l7.764675,13.3496v-13.3496h4.101669v20.719998h-4.101669l-8.057673-13.823199v13.823199h-4.101669Z" style="fill:#fff; stroke-width:0px;"/><path d="m322.201567,35.539919V14.81992h13.798433v3.907199h-9.579566v4.292001h7.763105v3.847998h-7.763105v4.765601h9.579566v3.907199h-13.798433Z" style="fill:#fff; stroke-width:0px;"/><g style="opacity:.85;"><path d="m98.686315,62.427258c-.312328,0-.535595-.194689-.596695-.520776-.039634-.188154.043202-.419992.191794-.54451l.099136-.083242.047156-.109728c.208135-.482251.382246-1.051872.550931-1.602573.107862-.352917.210187-.686571.316207-.983765l.032814-.099408c.032856-.095281.082074-.239062.002998-.359453l-.069409-.1056-.168054-.007911c-.093217,0-.183478.031302-.268226.063635-1.885562.709618-4.104134,1.437466-6.247883,1.449505-1.017817,0-1.698489-.310952-2.048922-.924257-.407042-.711682-.33347-1.787631.20634-3.029032,1.057172-2.593218,3.337939-4.952533,5.350476-7.034262l.126488-.122111c3.342774-3.246424,5.491133-4.892682,6.38512-4.892682.059507,0,.109012.008599.151621.02683.202724.091153.230094.302353.227849.419992-.004414.220143-.112953.461269-.283464.629128l-.021006.020294-.018688.022702c-.10873.132086-.291164.198473-.577893.29169l-.149014.049188-.031943.015823c-.428252.213952-.819802.508049-1.198263.792515l-.160785.120735c-1.699506,1.383462-7.28494,6.158161-8.607053,10.142752-.339604,1.05084-.154983,1.786599.505317,2.022221.343583.097001.685599.141373,1.063282.141373.912561,0,1.856979-.26142,2.857074-.538663.202833-.056068.408408-.113167.616523-.168547l.418861-.133806c.837146-.267956,1.62778-.520776,2.415663-.88642l.20724-.096313.071799-.200881c.094216-.262796,1.313556-4.036875,1.388319-4.295887l.028141-.096657-.025938-.081522c-.054247-.170611-.236869-.17921-.296752-.182306l-.062148-.000344c-.351197,0-.727164-.011695-1.108978-.02339-.400855-.012383-.807557-.024766-1.198655-.024766-.236998,0-.468905.004472-.689843.016511l-.032889.00172-.033636.007223c-.116112.026142-.236713.061915-.358223.098376-.193525.058132-.376418.113167-.520543.113167-.05194,0-.09673-.007223-.136666-.022014-.338979-.095281-.436746-.373899-.392599-.610553.025113-.135182.122175-.38869.488767-.566181.508201-.255916,1.005301-.26142,1.53175-.267268.128059-.001376.256229-.003096.384023-.007911.551129.008255,1.123092.024422,1.696774.040589.796529.022702,1.619898.046436,2.437179.046436.480531,0,.917182-.007911,1.33563-.024422l.031767.000688c.479499,0,.952102-.103192,1.351116-.20432.014082-.002064.051078-.005848.086851-.005848.163387,0,.312072.076362.3981.203976.07951.117983.097155.263484.049566.409673l-.012106.038525c-.313975.718217-1.322098.78082-2.508643.785636-.237564.000688-.455744.002064-.638379.014791l-.107146.005848-.02003.00344c-.167809.027518-.389848.156852-.462623.430999l-.223671.691043c-.1358.424464-.311125.964846-.477224,1.476679-.308298.949711-.499075,1.537906-.529637,1.655889l-.029016.112135.042046.087025c.01874.038869.043894.07705.070667.116607.024445.036117.061573.090465.058941.113511-.01265.244565-.2163.536255-.400597.712713-.152347.149973-.20145.248693-.236441.370804-.003203.012039-.007295.02683-.014885.047124-.236545.733008-1.377891,4.26149-1.377891,4.26149-.078706.265892-.21269.473996-.390395.610897-.146644.113167-.321209.175427-.491476.175427h0Z" style="fill:#fff; stroke-width:0px;"/><path d="m141.038952,49.109285c-.51768,0-.942249-.326431-.724014-1.055999.238642-.695859.910226-1.019882,1.430658-1.019882.466084,0,.93056.259356.706155.990988l-.011227.034741c-.2488.723033-.883892,1.050152-1.401571,1.050152h0Z" style="fill:#fff; stroke-width:0px;"/><path d="m125.612679,58.659026c-.790451,0-1.031475-.71237-.856782-1.382774l.106709-.410017-.429531.088057c-.562032.114887-1.047956.227367-1.444731.334342-.476381.148941-1.061522.314048-1.52279.314048-.029582,0-.058597-.000688-.087046-.002064l-.078537.000344c-1.54788,0-1.740468-1.745667-1.629105-3.209963.000128-.066387.003128-.109728.006106-.155132.014003-.224271.034754-.563085-.228767-.724753l-.086882-.05366-.121911.019607c-.873521.141029-1.816086.833104-2.573368,1.38931l-.229441.168203c-.618631.468836-1.279234,1.004747-1.86923,1.515892-.222776.192281-.513868.307512-.777352.307512-.032333,0-.064111-.00172-.095333-.00516-.566501-.076706-.585254-.636007-.547508-1.547882.019239-.465052.039009-.945584-.093957-1.314323l-.026664-.073954-.066573-.040933c-.099106-.060539-.212699-.091153-.337905-.091153-.478123,0-.935416.425151-1.302749.766717-.113241.1056-.220353.205008-.300002.265204-.215143.176115-.41723.339502-.620794.504265-.697913.565149-1.419828,1.149216-2.061858,1.763897-.1754.160636-.334591.325399-.488796.484315-.190056.196409-.369787.382155-.576818.555518-.151359.111791-.385576.193657-.585424.193657-.094593,0-.225946-.018231-.315461-.105256-.318128-.266236-.199181-.713057.032487-1.418204.07152-.217047.145253-.442006.194314-.657678.243689-.78598.55619-1.750826.895849-2.762453.063317-.155476.123456-.341566.183352-.529032.145471-.454389.282827-.883668.608709-1.17467.128661-.100096.34118-.173363.541373-.173363.096313,0,.184659.017199.254932.049876.201396.084618.274196.309576.181819.539007-.385608,1.014378-.686001,1.86193-.920895,2.599409l-.009004.027862-.004189.027862c-.00379.010663-.013646.033709-.022814.056756-.025138.065011-.054086.138621-.066027.216015-.031978.20432.071841.345006.26437.358077l.154205.010319.148163-.110416c.455189-.338814.882091-.708242,1.294671-1.065287.511807-.442694.995082-.860966,1.534776-1.23349.605934-.443382,1.275538-.702738,1.803537-.702738.394537,0,.877499.148941.938239.857182.026495.28309.040778.560333.055182.838264.012154.236998.02454.47434.043726.715121l.011137.136902.118215.056756c.049085.023734.105157.035429.165696.035429.225303,0,.415434-.155132.529378-.248005.019672-.016167.038422-.032678.056416-.044717l.047699-.033709c2.298441-1.793479,3.93099-2.702601,4.85215-2.702601.216703,0,.8761,0,.850251,1.281646-.007706.121767-.018886.262796-.030267.406577-.071174.905683-.151785,1.9321.302423,2.591498l.014313.020638.018287.016855c.15832.144469.36992.217735.628931.217735.323679,0,.662757-.109384.990638-.214984.195425-.062947.380108-.122455.534745-.148597.279883-.056068.562986-.133806.8374-.209136.366802-.10044.74641-.20432,1.090579-.252821l.190977-.02683.135113-.164763c.699915-.853399,1.60901-1.612205,2.322858-2.177697.867939-.645295,3.551862-2.641718,5.325044-2.641718.643574,0,1.110083.25626,1.425815.783228.060293.190217-.048023.374243-.151577.496698-.195325.230806-.500858.391786-.743359.391786-.04678,0-.092015-.005848-.13364-.017543-.092732-.031302-.191383-.092185-.295691-.156852-.193264-.119359-.411918-.254885-.734565-.254885-.08393,0-.171892.009287-.261592.028206-1.712697.276899-5.377883,3.015961-6.206209,4.648804-.078464.176802-.157489.400041-.064558.563773.05418.096313.157218.148941.28896.148941.22943,0,.49139-.161324.722469-.303729l.059252-.036461c.323264-.198817.622218-.397978.938366-.608833l.314105-.208792c.31568-.189186.663507-.419304.999945-.641855.91171-.602986,1.854056-1.226266,2.757315-1.442282.071928-.007567.137363-.011007.197902-.011007.530407,0,.532099.234246.257321,1.165383-.044663.152036-.089881.305793-.127341.455765-.153192.676252.141516,1.142681.714231,1.142681.111215-.000344.23166-.017543.357896-.051596.542419-.104224,1.118388-.25798,1.73075-.463677l.266588-.089433.072063-.253853c.216635-.762934.611473-1.624932,1.207058-2.635526l.033699-.057444.01476-.059507c.015527-.062947.026319-.129334.036523-.197097.015897-.1056.030824-.205008.073116-.251789l.066479-.081178c.453512-.560333.804578-.956935,1.195332-.956935l.04668.001376c.293653.001376.662914.188154.57241.477779-.066054.168203-.206677.34363-.370063.546918-.139834.174051-.298235.371492-.430369.603674-.594741.879197-.972062,1.727436-1.167835,2.636558l-.016756.077394.018679.066731c.027006.096313.029843.195033.008993.309576l-.063094.154788.045807.10732c.070816.165107.246869.362204.686123.362204.222551,0,.487738-.04678.858736-.151692.488128-.143781.985785-.32024,1.46665-.490506.341482-.121079.684795-.242501,1.02798-.353949l.355637-.115919.001079-.322647c.009391-2.529239,2.099882-6.508326,4.046582-8.637523,1.164487-1.352161,2.489041-2.25234,3.306666-2.25234.812465,0,1.04138.942488.628225,2.585994-.650777,2.56398-2.155796,5.090123-4.128943,6.929694-.502517.476748-1.086481.994772-1.739391,1.543066l-.018984.016167-.01782.017887c-.165261.165451-.233159.355325-.182197.507361l.022108.065699.05419.040933c.287255.218079.71204.328839,1.262742.328839,1.133048,0,2.650524-.464708,3.758342-.803867.247007-.075674.476412-.145845.67968-.20432l.035668-.010319.034806-.016167c.14402-.066731.279089-.10044.401887-.10044.335718,0,.50659.251445.424968.625344l-.006945.016167c-.201553.498074-.890749.713745-1.841272.961063-.31242.081178-.608261.157884-.87004.25798-1.18405.306825-2.331286.580628-3.354263.580628h0c-.820033,0-1.432753-.179554-1.873585-.549326-.068253-.070859-.148759-.174051-.230549-.302009l-.098097-.153068-.223551.059507c-.459111.122111-.912323.271739-1.451607.458861-1.005779.33847-2.26272.761214-3.175282.761214-.677628,0-1.065174-.225991-1.219385-.710994l-.077936-.245253-.30538.108352c-.102248.036461-.203232.073266-.300411.112135-.861302.305449-1.698158.477779-2.337261.477779-1.149559,0-1.636311-.510801-1.488411-1.561297.005233-.049188.013344-.085993.019989-.120391.065461-.328151-.021776-.495666-.259138-.49773l-.035318-.000344-.036509.006536c-.188951.034397-.381624.153756-.567572.269331-.051271.03199-.100721.062603-.144842.087369-.447043.260388-.891073.568932-1.36129.895708-1.071364.744703-2.179393,1.514516-3.147769,1.573336-.031625.002064-.06154.003096-.090434.003096Zm22.124742-12.276421c-1.938233.987548-4.791539,6.095558-4.716195,7.902796l.02201.530063.522837-.406577c1.899999-1.478055,3.36893-3.493397,4.247914-5.827946.156394-.406233.332015-.883668.417886-1.369703.054087-.251445.111993-.713745-.132871-.844799l-.041275-.022358-.168434-.022702-.151873.061227Z" style="fill:#fff; stroke-width:0px;"/><path d="m156.812456,61.696658c-.165795,0-.292371-.067075-.398174-.2112-.107655-.202257-.100229-.543478.18057-.814186.26254-.149285.552324-.303041.853395-.462989,1.413211-.750895,3.015167-1.601542,3.536314-2.806481.275479-.636351.198412-1.281302-.22827-1.917309-.351847-.549326-.774043-1.059783-1.182535-1.553041-.522953-.63188-1.063668-1.28543-1.448339-2.018438-.946297-2.124382,1.545726-4.071961,4.64976-6.214573l.503929-.349133c.433139-.297193.864388-.588539,1.292907-.877821.693507-.468492,1.411045-.952807,2.121637-1.455009l.026641-.018575.024657-.022014c.120443-.107664.205533-.230462.280683-.33847.033338-.047812.065978-.096657.10292-.139653.222038-.276211.596783-.486379.923614-.525936.02783-.003096.057624-.004816.086862-.004816.209136,0,.395275.08393.485627.219455.06461.095969.075394.20948.033121.337094l-.019877.063635c-.174386.452325-.696266.817625-1.248884,1.204596-.122727.085993-.24409.170955-.359948.255916-.497477.340878-1.027231.698611-1.56279,1.060471-.786661.531095-1.600195,1.080421-2.385879,1.628715-.240365.176459-.466551.337782-.68944.496354-.946072.674188-1.840126,1.310884-2.582631,2.226886-.638864.757086-.58755,1.699918.147044,2.578427.307764.453701.671179.900179,1.022408,1.33221.327069.401417.665059.816938.961898,1.244841.596728.896395.69435,1.849203.288202,2.828152-.478452,1.152656-1.650942,2.303936-3.301206,3.241264-.207764.101128-.457821.249037-.699675.391786-.516074.304761-1.049931.619841-1.414542.619841h0Z" style="fill:#fff; stroke-width:0px;"/><path d="m169.843626,49.109285c-.517336,0-.941905-.326431-.72367-1.055999.238642-.695859.909882-1.019882,1.430658-1.019882.466084,0,.93056.259356.705811.990988l-.011227.034741c-.2488.723033-.883548,1.050152-1.401228,1.050152h-.000344Z" style="fill:#fff; stroke-width:0px;"/><path d="m170.963938,65.18008c-.297537,0-.525079-.209136-.529386-.486379-.003884-.224271.14757-.439598.438415-.624312,3.016582-1.462232,4.456391-4.606152,4.797841-7.066596.00435-.0571.012836-.090809.019724-.123831.030946-.147909.095463-.456109-.181127-.583723l-.082941-.038181-.106787.018575c-.393602.069483-.81599.273803-1.224803.471244-.208341.100784-.404818.195721-.575789.261764l-.036092.013759-.034542.019607c-.857039.488099-1.642578.757086-2.211166.757086-.321615,0-.731258-.087369-.85736-.50289l-.071174-.234246-.290576.087025c-.309209.092529-.640387.200881-1.073527.351197-1.00761.338814-2.267526.762246-3.178367.762246-1.041895,0-1.428553-.544854-1.253844-1.766649.146362-.908435.576425-1.948611,1.352679-3.267062l.033699-.057444.01476-.059507c.015527-.062947.026207-.12899.0363-.196409.016241-.1056.03139-.205696.073683-.252477l.065347-.079802c.439243-.54279.806055-.958311,1.196464-.958311l.04668.001376c.293653.001376.66257.188154.572177.477435-.065932.168891-.206899.344318-.370174.547262-.139945.174395-.298235.371492-.430369.603674-.64814,1.017818-1.252408,2.132981-1.199,3.248144l.001336.029926.007274.027518c.049313.181618.209399.398322.693025.398322.645638,0,1.687237-.379059,2.694564-.745735.461057-.167515.896522-.326087,1.245294-.429279l.201881-.059507.108984-.18609c.112472-.192625.227598-.37218.351356-.548638,1.722505-2.144332,4.354964-3.822924,6.686102-4.248763.231242-.024766.507757-.051252.773649-.051252.634975,0,.972779.148941,1.062255.46918l.003813.025454c.047201.188154-.055281.449918-.250631.666965-.083563.092529-.305187.307856-.561447.307856l-.047256-.00172c-.057465-.002064-.087912-.019607-.157825-.061915-.077643-.047124-.184359-.111791-.353856-.137589-.074695-.00516-.11667-.006192-.160011-.006192-1.806892,0-4.777692,1.759081-5.886666,3.485485-.065974.108352-.243006.401761-.147678.620873.05177.118671.168127.18437.328074.18437.234246,0,.537205-.143437.8533-.303041l.316693-.157196c.900698-.445446,1.751994-.866814,2.614355-1.068038.060122-.007223.120164-.011007.180016-.011007.3653,0,.75423.136558.750663.519056.030225.729224-.138195,1.486654-.316139,2.288457-.724959,3.263966-2.736072,6.050153-5.382201,7.466637l-.023376.012727-.022323.014791c-.17493.116607-.34471.175771-.50397.175771Z" style="fill:#fff; stroke-width:0px;"/><path d="m203.942089,56.361712c-.00758.04175-.02124.085884-.044675.126787-.224513.391851-.721519.586001-1.439445.830749-.196759.067075-.390544.133462-.571995.206384-.861646.305449-1.698502.477779-2.337605.477779-1.149559,0-1.636311-.510801-1.488411-1.561297.005233-.049188.013344-.085993.019989-.120391.065461-.328151-.021887-.495322-.259138-.49773l-.035318-.000344-.036509.006536c-.188951.034397-.381624.153756-.567572.269331-.051271.03199-.100721.062603-.144842.087369-.447043.260388-.891073.568932-1.36129.895708-1.071364.744703-2.179393,1.514516-3.147769,1.573336-.031625.002064-.061196.003096-.09009.003096-.758461,0-1.014065-.657678-.874359-1.3071l.09481-.441318-.466426.146877c-.290989.091497-.585219.202601-.870082.310264-.525754.198473-1.022607.386282-1.499166.461269-.205054.040589-.386018.059851-.554221.059851-1.364542,0-1.79018-1.199092-1.606758-2.387177.03593-.300633.088871-.642199.132869-.927353l.021096-.135526c.026877-.153412.067626-.385938-.050558-.552422l-.012096-.016855-.014938-.014447c-.10432-.099752-.252763-.15238-.429222-.15238-.382154,0-.825612.240782-1.098176.453013-.441363.300289-.896632.586131-1.378218.888484-.810848.509081-1.648924,1.035361-2.419382,1.637659-.329204.223583-.620393.52112-.902167.808682-.249088.254541-.48513.495322-.741773.672125-.132499.060883-.263127.091497-.389022.091497-.199161,0-.371145-.07877-.484616-.221519-.103718-.142061-.056247-.333654.078296-.735072.097532-.297537.209564-.646327.318594-.985829.095812-.297537.189179-.587507.26757-.827945.05688-.190905.116977-.381123.177398-.573404.118739-.376995.241136-.766373.328048-1.116195l.011234-.045405-.000663-.042653c-.002839-.132774-.060031-.220831-.102191-.285154-.013857-.020982-.034477-.052972-.037354-.065355.002731-.058476.017405-.10388.042964-.149973.315186-.497386.590381-.766717.878236-.850647.076385-.020294.171085-.032334.262582-.032334.216359,0,.567241.081866.510281.389034-.076011.418272-.255588.980325-.429163,1.523803-.112011.350853-.218029.6821-.28965.956935l-.168965.647358.645845-.385938c.556036-.332623,1.114116-.723721,1.653979-1.102092,1.014378-.710994,2.063134-1.446409,3.129292-1.812053.344033-.118327.690928-.180586,1.003256-.180586.408984,0,1.334113.119703,1.094626,1.229018l-.158156.929058c-.06442.378423-.092046.750696-.082527,1.112081l.001866.070859c.007548.257636.017324.610553.308847.797331.152615.090809.331355.134838.537395.134838.396945,0,.822435-.158572,1.197549-.298569l.109774-.040589c.171632-.057444.368492-.125894.571634-.196753.552646-.192281,1.124603-.391098,1.620303-.523184l.161804-.042997.113371-.137933c.701413-.852711,1.606645-1.608077,2.316851-2.170818.868283-.645295,3.552206-2.641718,5.325388-2.641718.643574,0,1.110083.25626,1.425815.783228.060293.190217-.048023.374243-.151577.496698-.195325.230806-.500858.391786-.743359.391786-.04678,0-.092015-.005848-.13364-.017543-.092732-.031302-.191383-.092185-.295691-.156852-.193264-.119359-.411918-.254885-.734565-.254885-.08393,0-.171892.009287-.261592.028206-1.537098.248693-4.845214,2.606633-5.979906,4.273185l-.021467.031302-.01572.032678c-.02773.058132-.065848.120735-.113.185746l-.0199.027518-.015529.028894c-.014904.022702-.02911.046436-.040574.069139-.078575.177146-.1576.400385-.064669.564117.05418.096313.157218.148941.28896.148941.22943,0,.49139-.161324.722469-.303729l.059252-.036461c.323608-.198817.622218-.397978.938366-.608833l.314105-.208792c.31568-.189186.663507-.419304.999945-.641855.91171-.602986,1.854056-1.226266,2.757315-1.442282.071928-.007567.137363-.011007.197902-.011007.530407,0,.532099.234246.257321,1.165383-.044663.152036-.089881.305793-.127341.455765-.153192.676252.141516,1.142681.714231,1.142681.111215-.000344.23166-.017543.357896-.051596.712583-.136902,1.451454-.349821,2.294452-.662493l.032097-.012039.031134-.016511c.228648-.122111.452693-.18953.630527-.18953.245597,0,.37939.108137.38484.354637.004129.062195-.012859.136579-.039336.216445Z" style="fill:#fff; stroke-width:0px;"/><path d="m204.715919,55.975688c.024425-.135182.046362-.266924.059561-.389722.073943-.429967.207927-.897771.349771-1.393093.112391-.392474.228884-.798707.315503-1.19978l.058369-.270019-.255526-.040589c-.125294-.01995-.267561-.028894-.460874-.028894-.087025,0-.176326.00172-.265971.00344-.085861.00172-.171722.00344-.25634.00344-.28481,0-.588505-.019263-.684089-.162012-.060541-.090465-.052122-.254885.0252-.487755.118267-.310608.435869-.558957.766255-.587163.087709-.011695.154874-.014103.223669-.014103.079114,0,.159524.00344.240278.006879.091883.004128.184221.007911.276406.007911.250413,0,.446184-.028894.635053-.093905l.219378-.07533.094094-.207072c.210742-.462645.395317-.939048.573979-1.399285.215535-.555174.437872-1.129266.707876-1.683751.378023-.835512.763679-1.687191,1.189918-2.528207.04443-.095969.08745-.172675.129448-.248349.127573-.229774.285881-.515273.27363-.829665.008631-.166139.272645-.441318.484808-.662493l.127172-.133806.022044-.030958c.268559-.380779.553257-.752958.824276-.756054h.000344c.296505,0,.428106.144125.48884.26486.10205.203632.080379.485691-.058602.755022-.054508.119703-.125549.203288-.215855.309232-.097324.114887-.207794.244909-.294407.409673-.798384,1.419923-1.56453,2.999795-2.336043,4.818728-.054107.136558-.107033.265204-.160071.394194-.172991.420336-.351915.854775-.448569,1.261352l-.011769.049188.002647.046092c.008827.157884.107283.267268.270196.299601l.017352.003784.018474.001376c.268175.02167.560991.030958.861951.040589.732672.02339,1.49012.047812,2.036292.256604.089313.033365.093116.170611.090718.228055-.00907.213264-.137081.490163-.28542.617089l-.05602.049876c-.071484.062603-.246711.138621-.406665.149285-.063503.00172-.141574.002752-.22.002752-.344317,0-.699264-.019263-1.042394-.037837-.348867-.018919-.709317-.038181-1.065329-.038181-.1056,0-.211068.00172-.31617.005504l-.044473.001376-.046766.012727c-.27843.074986-.488596.278275-.562031.543822-.475951,1.500413-.721495,3.074437-.881428,4.283504-.04357.124175-.142255.251789-.274335.353949-.137086.105944-.288848.166827-.416118.166827-.622527-.016167-.628396-.503577-.408618-1.589158l.090383-.459549Z" style="fill:#fff; stroke-width:0px;"/><path d="m211.618066,58.388663c-.264859,0-.513888-.033021-.740883-.098033-2.042973-.722345-.407426-4.045131.751215-5.961408.201402-.354981.657992-.567213.969288-.567213.248693,0,.37393.115919.371897.344662-.014481.132086-.061501.255228-.177486.44063-.550505.865782-1.025448,1.844731-1.301057,2.682651-.270294.762934-.298897,1.299533-.084321,1.631811.14468.223927.401225.342254.742102.342254,1.238648,0,3.458725-1.561641,4.301324-2.398873.679582-.620185,1.341386-1.365232,1.846742-2.081729.180461-.23803.421641-.31164.590243-.328839.050724-.006879.086243-.009287.120984-.009287.254884,0,.506611.140685.484386.402105-.070243.252477-.213261.5194-.364155.801115-.155393.290314-.315963.590259-.413438.904651-.233292.635663-.44226,1.363168-.173558,1.786599.146939.231838.417576.349133.803514.349133.248693,0,.546324-.047124.909151-.143781.338317-.060195.720883-.211544,1.090886-.358077l.48709-.18953.107252-.333998c.154597-.481563.314529-.979637.492913-1.456041.044459-.126926.094808-.249725.142467-.366332.050126-.122111.097786-.238718.133098-.340534l.01804-.052628.002238-.050564c.003081-.069139-.007051-.141029-.019945-.213952-.005453-.028894-.011419-.05108.033104-.148444s.196004-.244374.306238-.386435c.41717-.537287.578109-.71065.889748-.71065.094937,0,.203001.016855.321208.05022.12511.069483.229633.200537.200783.351541-.06851.174739-.165641.376307-.26805.588883-.146314.303729-.297338.617777-.381241.891236l-.008104.026142-.003754.025454c-.037156.23631.108615.34191.269938.34191h.000344c.146189,0,.271832-.081178.339265-.124862l.030943-.012727.015686-.013415c1.135117-.642887,2.508973-1.193245,3.868513-1.550289.473171-.126238.887009-.190217,1.230983-.190217.584411,0,.923562.179898,1.035555.54967.000828.194345-.120212.446478-.307579.636695-.103954.1056-.269026.233214-.464218.240094l-.074277.002064c-.066387,0-.166827-.056412-.255387-.105944l-.086708-.047812c-.150553-.068451-.292918-.098376-.450458-.098376-.162011,0-.318205.030958-.483786.063291l-.054121.011007c-1.11041.275867-3.213616.926665-4.82599,2.185265-.385704.316456-.57624.702738-.744534,1.043616-.125935.255572-.245137.496698-.413095.644951-.115468.100784-.291763.162012-.469598.162012-.17749,0-.327494-.059507-.401322-.159948l-.109274-.147221-.403213.127958c-.149956.04678-.294762.092529-.428207.139309-.607059.208448-1.249348.323679-1.805553.323679-.84755,0-1.835957-.253853-1.731647-1.464296.026309-.356013-.195254-.394194-.291566-.394194h-.071546l-.094612.03199-.062251.02339-.056812.039557c-.153465.107664-.316574.236654-.482747.36874-.186533.148253-.379548.301665-.555409.416896-1.372359.979981-2.767844,1.534467-3.847232,1.534467Z" style="fill:#fff; stroke-width:0px;"/><path d="m232.289633,58.278591c-.929072,0-2.096658-.194345-2.384791-1.119634-.270347-.867502.31307-2.240645,1.686407-3.970832,1.080951-1.268231,3.178425-3.42013,4.945072-3.42013.297537,0,.581256.061915.84277.184026.530716.301321.357611,1.082829.257457,1.404445-.614296,2.19352-3.263411,3.406372-4.373962,3.826363-.569323.209824-1.107986.322647-1.458828.380091l-.024724.004128-.024926.006879c-.247514.070859-.452271.26486-.521035.493602l-.009355.038525c-.185025.97379.933505,1.000619,1.471038,1.01369,1.328807-.007567,2.960262-.550358,4.399287-1.028825.253226-.084274.50108-.166827.739588-.243877l.025259-.007911.02454-.011007c.160023-.071547.318096-.109384.456717-.109384.274835,0,.524867.154444.403032.587851l-.012482.035429c-.074899.245597-.413978.467804-.685675.528344l-.03842.010319c-.318868.101128-.641404.213608-.965539.326775-.303569.105944-.608626.212232-.912512.309576-1.427231.49945-2.750242.761558-3.838918.761558h0Zm3.713191-7.32492c-.190217,0-.398032.07361-.612187.155132l-.035293.013415-.033743.019263c-1.045562.587163-2.145829,1.590534-2.803325,2.556413l-.442625.65011.72531-.193313c1.314086-.350509,3.033969-1.218011,3.556765-2.508944l.013705-.039213c.148898-.489475-.106843-.652862-.368607-.652862Z" style="fill:#fff; stroke-width:0px;"/><path d="m255.053169,62.427258c-.312328,0-.535595-.194689-.596695-.520776-.039634-.188154.043434-.419648.191794-.54451l.09948-.083242.047156-.109728c.208135-.482251.382246-1.051872.550931-1.602573.107862-.352917.210187-.686571.316207-.983765l.032814-.099408c.032856-.095281.082074-.239062.002998-.359453l-.069409-.1056-.168054-.007911c-.093217,0-.183478.031302-.268226.063635-1.885906.709618-4.104822,1.437466-6.248227,1.449505h-.000344c-1.022633,0-1.703326-.313016-2.051615-.929761-.409131-.725441-.325338-1.822373.23588-3.089572,1.07195-2.571891,3.330944-4.907473,5.323973-6.968219l.128531-.124175c.684402-.664901,1.958981-1.902175,3.261285-2.983628,1.998139-1.659329,2.813592-1.90699,3.121792-1.90699.059507,0,.109012.008599.151621.02683.202835.090809.230205.302009.228072.419304-.00407.220143-.113064.461613-.28403.629816l-.020773.020638-.018577.022358c-.10873.132086-.29082.198473-.577438.291346l-.149469.049532-.031943.015823c-.428707.214296-.820368.508737-1.199285.793547l-.159763.119703c-2.004158,1.574712-9.79997,8.58352-8.617707,11.735007l.012719.033021.021144.027174c.266001.338126.768911.509425,1.495039.509425h.000688c2.013043-.000344,5.359286-1.31398,6.336897-1.716429l.223338-.091841.076478-.214296c.093983-.26314,1.313779-4.037563,1.38843-4.296231l.07742-.268299-.240611-.062259c-.099326-.025798-.216393-.037149-.379436-.037149-.062259,0-.127138.00172-.192705.00344-.060984.001376-.122767.003096-.18365.003096-.060195,0-.119491-.00172-.1755-.007223-.204949-.005504-.392155-.013759-.583488-.022014-.296864-.012727-.602559-.025798-.902848-.025798-.395569,0-.714091.022358-1.002081.070515l-.04178.006879-.041808.015479c-.170194.063635-.419747.148253-.622003.148253-.059163,0-.112098-.007567-.156961-.022014-.269822-.070859-.423004-.307856-.387834-.58166.018886-.149973.102132-.363924.390282-.531783.525601-.31508,1.06764-.321271,1.641092-.327807.127027-.001376.252678-.002752.377721-.007567.553881.008255,1.12722.024422,1.701823.040933.794809.022702,1.616914.046092,2.432475.046092.480187,0,.916838-.007911,1.335286-.024422l.031767.000688c.479499,0,.952102-.103192,1.351116-.20432.014082-.002064.051078-.005848.086851-.005848.163387,0,.312072.076362.3981.203976.07951.117983.097155.263484.049566.409673l-.018331.057788c-.292736.698267-1.30693.761558-2.502073.766373-.237908.000688-.455744.002064-.638379.014791l-.10749.005848-.020374.00344c-.16792.027862-.389271.157196-.461935.430999l-.223671.691043c-.132809.414144-.303243.939392-.465785,1.440218-.315301.971382-.509959,1.572648-.541076,1.692351l-.029249.111791.042046.087025c.01874.038869.043783.077394.0709.116951.024101.036117.061229.090465.058597.113511-.012883.244221-.2163.536255-.400708.713057-.152003.149973-.201106.248693-.235986.37046-.003203.012039-.007295.02683-.014885.047124-.236879.73404-1.377891,4.26149-1.377891,4.26149-.078706.265892-.212579.473652-.390395.610897-.146644.113167-.321553.175427-.49182.175427h0Z" style="fill:#fff; stroke-width:0px;"/><path d="m262.932612,58.278247c-.928728,0-2.096425-.194001-2.384558-1.11929-.270459-.867158.312615-2.240301,1.686063-3.970832,1.081295-1.268231,3.179568-3.420474,4.945183-3.420474.297537,0,.581256.061915.843003.18437.530716.301321.357267,1.082829.257457,1.404445-.614296,2.19352-3.263411,3.406372-4.373962,3.826363-.569778.210168-1.108329.322647-1.458828.380091l-.024724.004128-.024926.006879c-.247514.070859-.452271.26486-.521147.493946l-.009243.038181c-.185025.97379.933505,1.000619,1.471038,1.01369,1.331326-.007911,2.963125-.550702,4.402949-1.029513l.663588-.219455.079603-.245253c.190555-.587507.39002-1.212163.551985-1.826156l.0127-.047812-.000805-.045405c-.002839-.132774-.060375-.220831-.102191-.285154-.013857-.020982-.034588-.052628-.037354-.065355.003167-.083242.039895-.158572.132691-.290314.271029-.374587.499045-.62672.787477-.710306.077417-.020294.172117-.032334.263614-.032334.216359,0,.567241.081866.510281.389034-.076011.418272-.255477.979981-.42894,1.523116-.112122.351197-.218251.682788-.289872.957623l-.169076.647702.645956-.386282c.555581-.332279,1.113316-.723377,1.652725-1.101404,1.014833-.711338,2.064277-1.446753,3.130546-1.812741.343921-.117983.690928-.180586,1.003256-.180586.408984,0,1.334457.119703,1.094282,1.229018l-.031478.185746c-.103104.618121-.20966,1.257568-.208973,1.855738l.001957.068451c.006981.258324.016769.612273.308868.799395.152959.090809.331355.134838.537395.134838.396945,0,.822091-.158572,1.197093-.298225l.110229-.040933c.17403-.058476.373975-.127958.580202-.199849.363899-.126582.748019-.260388,1.11433-.375275l.231215-.072578.096498-.218767c.289383-.655958.769717-1.408916,1.428253-2.238581,1.081295-1.268231,3.179568-3.420474,4.945183-3.420474.297537,0,.581256.061915.843003.18437.530716.301321.357267,1.082829.257457,1.404445-.614296,2.19352-3.263411,3.406372-4.373962,3.826363-.556071.205008-1.08568.317488-1.431474.375275l-.356325.059507-.059509.33847c-.017568.099064-.056998.201913-.117399.305793l-.090835.155476.048355.13243c.196854.540383.974422.558957,1.439357.569964,1.330183-.007567,2.961183-.550014,4.400319-1.028825l.625988-.207416.078794-.245941c.162145-.505985.32329-1.008875.50323-1.490094.044459-.126926.094808-.249725.142467-.366332.050126-.122111.07154-.203624.112071-.278932,0,0,.037539-.082231.052807-.10827s-.000919-.090454-.000919-.090454c-.008808-.060973-.038556-.099967-.03064-.179678.006247-.062903.064302-.149245.078642-.176655.081379-.128828.150355-.215819.260589-.35788.416937-.537631.577987-.711338.890315-.711338.094937,0,.202657.016855.320864.05022.12511.069483.229744.200193.201127.351541-.068177.173707-.165085.374587-.266816.586131-.146991.304761-.298693.619841-.382585.894332l-.007882.025454-.003876.024766c-.037733.235966.113441.342942.269949.342942.146533,0,.271832-.081178.339265-.124862l.030599-.012727.01603-.013415c1.135804-.642887,2.509772-1.193589,3.868513-1.550289.473171-.126238.887009-.190217,1.230983-.190217.584755,0,.923906.179898,1.035899.54967.000373.194689-.121011.446822-.308035.637039-.103954.1056-.268915.23287-.464107.23975l-.074277.002064c-.066387,0-.166827-.056412-.255276-.106288l-.08682-.047468c-.150553-.068451-.292918-.098376-.450114-.098376-.162011,0-.318094.030614-.483442.063291l-.054809.011007c-1.11041.275867-3.213616.926665-4.82599,2.185265-.38536.316456-.57624.702738-.74419,1.043616-.126168.255228-.245137.496698-.413328.644607-.11558.101128-.291187.162356-.468333.162356-.208792,0-.377854-.084618-.430893-.215328l-.088803-.220143-.327797.113855c-.284491.099064-.570581.198817-.855723.290314-1.426088.499106-2.7483.76087-3.836287.76087-1.351127,0-2.204543-.419304-2.402952-1.180518l-.065151-.250757-.462653.145845c-.347137.094937-.723373.237342-1.0875.375275-.524489.198817-1.019855.386282-1.495382.461269-.205054.040589-.386018.059851-.554221.059851-1.364542,0-1.79018-1.199092-1.606758-2.387177.036565-.305793.090243-.653894.134898-.942144l.018724-.120735c.027009-.151692.068546-.385595-.050791-.552766l-.011752-.016855-.015049-.014103c-.103976-.099752-.252419-.15238-.428878-.15238-.382154,0-.825612.240782-1.098176.453013-.441818.300633-.897886.586819-1.380039.88986-.809937.508393-1.647903,1.034329-2.417562,1.636283-.33871.235966-.637192.537975-.925914.830009-.230501.233214-.448633.453701-.683452.634287-.132183.069483-.277771.105944-.422584.105944-.329526,0-.615477-.191249-.524373-.557237l.031539-.100784.148884-.502202-.526821.183682c-.256613.089433-.483749.168547-.710948.24147-1.426887.49945-2.750131.761214-3.838806.761214Zm24.086279-7.324576c-.190561,0-.398376.07361-.612187.155132l-.035293.013415-.033743.019263c-1.045562.587163-2.145829,1.590534-2.803325,2.556413l-.442625.65011.72531-.193313c1.313975-.350165,3.033747-1.217323,3.556765-2.508944l.013705-.039213c.148665-.489819-.107187-.652862-.368607-.652862Zm-20.372855,0c-.190561,0-.398376.07361-.612187.155132l-.035293.013415-.033743.019263c-1.045562.587163-2.145829,1.590534-2.803325,2.556413l-.442625.65011.72531-.193313c1.313975-.350165,3.033747-1.217323,3.556765-2.508944l.013705-.039213c.148665-.489819-.107187-.652862-.368607-.652862Z" style="fill:#fff; stroke-width:0px;"/><path d="m308.706943,55.926843c.153862-.813498.387461-1.723652.694978-2.705009l.013732-.047812c.151264-.493602-.20936-.518712-.282971-.518712-.050807-.001376-.112844-.002064-.180951-.002064-.089433,0-.525306.005504-.641225.005504-.222207,0-.378656-.005504-.491716-.017543-.391796-.057444-.275928-.457485-.23084-.578908.110381-.296849.396006-.622936.761958-.637727l.038261-.00344c.065949-.009287.133114-.011695.201564-.011695.079458,0,.159868.00344.240622.006879.091883.004128.184221.007911.276406.007911.250413,0,.446184-.028894.635053-.093905l.138139-.047468.099144-.116263c.169619-.199161.231926-.408985.282035-.577876.022614-.076362.044128-.148253.07028-.203632.570533-1.501445,1.264501-3.064462,2.197668-4.952533.04263-.092529.08565-.169235.12776-.245253.127007-.229086.285315-.514585.272952-.828633-.000101.001376.000132.00172.000476.00172.002064,0,.010942-.040245.038255-.1056.054558-.148597.266155-.369084.406272-.515273.054348-.056412.104721-.10904.14758-.156508.079859-.095969.140348-.179898.202759-.26658.076881-.106976.149463-.208104.22875-.292722.147131-.166827.295772-.24147.465695-.24147.271739,0,.501309.194345.522632.44235.020355.141373-.02914.359453-.121425.564117-.09565.155476-.189753.282746-.288941.41724-.175312.236998-.356276.481907-.524711.854087-.997345,1.868465-1.832514,3.685334-2.469379,5.372869l-.011381.030958-.006221.030958c-.00503.024078-.031908.087025-.051508.132774-.071123.165795-.259727.60677.115111.744359l.035677.013071.041197.00344c.268175.02167.560991.030958.861951.040589.732672.02339,1.49012.047812,2.036292.256604.088969.033365.092883.170267.090485.227711-.009181.213608-.137193.490506-.285532.617433l-.034427.030958c-.183049.130022-.401684.188154-.705068.188154-.166483,0-.342543-.017199-.512522-.034053-.176748-.017199-.359121-.035085-.539707-.035085-.039213,0-.175739.003096-.175739.003096-.124174,0-.247057-.008255-.368674-.016167-.134699-.008943-.268245-.017199-.401018-.017199-.210168,0-.387792.020638-.559095.065355l-.24609.064323-.103119.23287c-.378269.856495-.547117,1.774904-.709966,2.663044-.041722.227023-.082677.450606-.126679.667653-.042102.212232-.058091.399009-.073111.579596-.016927.196065-.032704.381123-.081381.566869-.070601.23975-.391756.510801-.633301.525936l-.037451.004128c-.029418.004816-.058058.007223-.085576.007223-.308888,0-.522539-.263828-.467118-.575812l.003595-.018575.001187-.018575c.019652-.300289.057007-.629816.110897-.979637l.087482-.508049Z" style="fill:#fff; stroke-width:0px;"/><path d="m307.924301,56.435924c-.209379.427559-.717002.627408-1.467704.883324-.196759.067075-.390888.133462-.572339.206384-.86199.305449-1.698502.477779-2.337605.477779-1.149559,0-1.636311-.510801-1.488644-1.561641.005122-.048844.013233-.085649.019877-.120047.065461-.328151-.021887-.495322-.259138-.49773l-.035318-.000344-.036965.006879c-.188151.034053-.380481.153412-.566773.268987-.05116.031646-.100721.062603-.144842.087369-.447043.260388-.891073.568932-1.360946.895708-1.071597.744359-2.179737,1.514516-3.148457,1.573336-.031625.002064-.06154.003096-.090434.003096-.450605,0-.673753-.228055-.781181-.419304-.186581-.330559-.174671-.80593.031801-1.271327.591604-1.481495,1.990072-2.724272,3.28059-3.746905.868283-.645295,3.552206-2.641718,5.325044-2.641718.643918,0,1.111004.256604,1.426746.784604.061384.184714-.046478.368396-.149909.491538-.195648.23287-.502192.395914-.744693.395914-.047124,0-.092248-.006192-.134217-.017887-.092732-.031302-.191383-.092185-.295691-.156852-.193264-.119359-.412262-.254885-.734565-.254885-.084273,0-.172236.009287-.261936.028206-1.712242.276555-5.377772,3.015617-6.206209,4.648804-.078575.177146-.1576.400385-.064669.564117.054635.095969.15733.148597.289071.148597.229086,0,.49059-.16098.721326-.303385l.060051-.036805c.324407-.199161.623816-.398666.940874-.610209l.311941-.207416c.315336-.189186.663052-.41896.999146-.641511.912054-.602986,1.854512-1.22661,2.75777-1.442626.071928-.007567.137363-.011007.197558-.011007.531095,0,.532675.23459.257454,1.167103-.044551.151692-.08978.304417-.127018.453701-.152615.676596.142093,1.143025.714464,1.143025.111215-.000344.23166-.017543.357896-.051596.712583-.136902,1.451797-.349821,2.294219-.662837l.031985-.011695.031134-.016511c.227738-.121423.450295-.188498.627442-.188498.232182,0,.361119.107664.382764.319552.011374.103837.001723.216987-.049902.324711Z" style="fill:#fff; stroke-width:0px;"/><path d="m315.088008,58.87401c-1.216978,0-2.001353-.383875-2.098471-1.027449-.294301-1.712989,1.531172-4.714503,4.238557-5.879886l.021121-.008943.020523-.011351c.289874-.156164.647954-.257292.91247-.257292.022702,0,.087866.003784.087866.003784,0,0,.022348-.001032.022692-.001032.146189,0,.284241.079458.430602.164075.104144.059851.211638.122111.336527.169923l.081259.030614.10013-.019263c.098754-.019263.201042-.029238.30389-.029238.477435,0,.9796.210856,1.343214.564117l.011699.011695.013742.009631c.084892.060883.178981.067763.242616.067763l.084718-.001376.269352.002064.752127-.002752c.18609,0,.365887.001376.519807.006192.214136.006879.375128.154788.409249.375963l.021487.139997-.057696.144469c-.034215.085649-.073567.151004-.123231.205696l-.040138.044373c-.070983.078082-.276662.181274-.40732.186434l-.022581.000688-.023237.003784c-.020263.003096-.042267.004128-.064382.005504-.119963.008255-.343965.02339-.524866.218079-.172772.182306-.157317.371836-.149288.473652.001565.018575.004394.037493.003318.055724-.019204.649078-.373386,1.303316-1.054338,1.969249-1.316718,1.287838-3.503607,2.233765-4.719931,2.309439l-.036763.004128c-.301182.047468-.605469.071547-.904726.071547Zm2.076296-5.692421c-1.397411.714777-2.608727,2.242708-2.817266,3.55428-.036723.459549.147496.975165,1.214501.975165.360828,0,.738622-.056756,1.014413-.098033,1.180123-.196753,2.460885-.915658,3.533989-1.974409.186564-.201569.301857-.455077.343394-.576156l.01623-.05022c.142409-.41724.039898-.891924-.251984-1.14784l-.057846-.050908-.086543-.008943c-.146801-.015135-.308542-.022358-.509078-.022358-.130022,0-.26242.003096-.395163.006192-.127472.002752-.255398.005848-.381636.005848-.222551,0-.50882-.008255-.751506-.071547-.225778-.058132-.361475-.199161-.352647-.266924l.021602-.164763-.1775-.113855-.147-.091153-.215961.095625Zm5.932523,4.369154c-.20432,0-.421306-.084274-.445583-.273115-.028981-.245597.05788-.510113.158646-.816594.032137-.098376.064607-.197785.094204-.297881.059948-.182306.122634-.377339.184976-.572372.153263-.477435.311406-.971038.487879-1.443658.044348-.126582.094585-.249037.142356-.365988.050126-.122111.097786-.238718.133098-.340534l.017929-.052284.002471-.05022c.002079-.043685-.001013-.088401-.0072-.133118,0,0,.004049-.132269.043276-.219459s.173077-.255225.282633-.396254c.417281-.537631.578331-.711338.890315-.711338.095281,0,.203001.016855.321208.05022.12511.069483.229744.200193.201127.351541-.068177.173707-.165085.374587-.266816.586131-.146991.304761-.298693.619841-.382585.894332l-.007882.025454-.003876.024766c-.037622.235622.113441.342942.269949.342942h0c.146533,0,.271832-.081178.339265-.124862l.030599-.012727.01603-.013415c1.135804-.642887,2.509772-1.193589,3.868513-1.550289.473171-.126238.887009-.190217,1.230983-.190217.584755,0,.923906.179898,1.035899.54967.000373.194689-.121011.446822-.308035.637039-.103954.1056-.268915.23287-.464107.23975l-.074277.002064c-.066387,0-.166827-.056412-.255276-.106288l-.08682-.047468c-.150553-.068451-.292918-.098376-.450114-.098376-.162011,0-.318094.030614-.483331.062947l-.05492.011351c-1.11041.275867-3.213616.926665-4.82599,2.185265-.38536.316456-.57624.702738-.74419,1.043616-.126168.255228-.245137.496698-.413328.644607-.117167.102848-.296092.164763-.477022.164763Z" style="fill:#fff; stroke-width:0px;"/></g></svg>